<svg fill="#FF0000" xmlns="http://www.w3.org/2000/svg" viewBox="0 0 500 500" data-props="opacity" data-delay="1.2" id="rotating-sun" class="sun rotating-mobile should-animate" data-v-c2a89286="" data-v-3c1d4110="" style="opacity: 1;"><defs data-v-c2a89286="" data-v-3c1d4110=""/><path d="M372.5 274.6c-20.4-4.1-40.8-8.5-61.2-12.8l-53.1-11.2 54.2-.8c20.8-.3 41.6-.7 62.5-.9l62.5-.7c20.8-.1 41.7-.3 62.5-.3l-.1-4.9c-20.8.7-41.6 1.2-62.5 1.8l-62.5 1.5c-20.8.5-41.6.9-62.5 1.3l-54.2 1.1 52.7-13c20.2-5 40.4-10 60.7-14.9l60.7-14.7c20.3-4.8 40.5-9.7 60.8-14.4l-1.2-4.8c-20.1 5.4-40.3 10.6-60.4 15.8l-60.5 15.5c-20.2 5.2-40.4 10.2-60.6 15.3L257.8 247l48.4-24.5c18.6-9.4 37.1-18.9 55.8-28.2l55.9-28c18.7-9.2 37.3-18.5 56-27.7l-2.2-4.4c-18.4 9.8-36.9 19.4-55.3 29L360.8 192c-18.5 9.6-37 19-55.6 28.6l-48.3 24.7 41.6-34.8c16-13.3 31.9-26.7 48-40l48.1-39.8c16.1-13.2 32.2-26.5 48.3-39.6l-3.2-3.8C424 101 408.1 114.5 392.3 128l-47.6 40.5c-15.8 13.5-31.8 26.9-47.7 40.3l-41.5 35 32.7-43.2c12.6-16.6 25.1-33.2 37.8-49.8l37.9-49.6c12.7-16.5 25.4-33 38.2-49.4l-3.9-3c-12.3 16.8-24.7 33.6-37 50.4l-37.3 50.2c-12.4 16.7-24.9 33.4-37.4 50L254 242.8l22.2-49.5c8.5-19 17-38 25.6-57l25.8-56.9c8.7-18.9 17.3-37.9 26.1-56.8l-4.5-2C341 39.8 332.7 58.9 324.5 78l-25 57.3c-8.3 19.1-16.8 38.1-25.2 57.2l-22 49.6 10.5-53.2c4-20.4 8-40.9 12.1-61.3l12.3-61.2c4.2-20.4 8.3-40.8 12.7-61.2l-4.8-.9c-3.6 20.5-7.5 41-11.2 61.5L272.6 127c-3.8 20.5-7.8 40.9-11.7 61.4l-9.9 51.8.1-52.7c.1-20.8 0-41.7.2-62.5l.4-62.5c.3-20.8.4-41.7.8-62.5h-4.9c.3 20.8.5 41.7.8 62.5l.4 62.5c.2 20.8.1 41.7.2 62.5l.1 54.2-12.1-52.9c-4.6-20.3-9.3-40.6-13.8-60.9l-13.6-61c-4.4-20.3-9-40.7-13.3-61L191.4 7c5 20.2 9.9 40.5 14.8 60.7l14.5 60.8c4.9 20.3 9.5 40.6 14.3 60.8l12.3 52.8-23.7-48.8c-9.1-18.7-18.2-37.5-27.2-56.3l-27-56.3c-8.9-18.8-17.9-37.6-26.7-56.5l-4.4 2.2c9.4 18.6 18.7 37.2 28.1 55.8l27.8 56c9.3 18.6 18.4 37.4 27.6 56.1l23.9 48.7-34-42.2c-13.1-16.2-26.2-32.4-39.1-48.7l-39-48.8c-12.9-16.3-25.9-32.6-38.7-49l-3.8 3.1c13.4 16 26.6 32.1 39.9 48.1l39.7 48.3c13.3 16.1 26.3 32.3 39.5 48.4l34.2 42.1-42.7-33.5c-16.4-12.9-32.8-25.7-49.1-38.6l-49-38.8c-16.3-13-32.6-26-48.8-39.1l-3 3.9c16.6 12.5 33.1 25.3 49.7 37.9l49.5 38.1c16.5 12.7 32.9 25.5 49.4 38.3l42.8 33.3-49.1-23c-18.8-8.9-37.7-17.6-56.5-26.6l-56.4-26.8c-18.8-9-37.6-18-56.3-27.1l-2.1 4.5c19 8.5 38 17.2 56.9 25.7l56.8 26c19 8.6 37.8 17.5 56.7 26.2l49.2 22.8-53-11.4c-20.4-4.4-40.7-8.7-61.1-13.2l-61-13.4c-20.3-4.6-40.7-9.1-61-13.7l-1 4.8c20.4 4 40.8 8.2 61.3 12.3l61.2 12.6c20.4 4.1 40.8 8.5 61.2 12.8l53.1 11.2-54.2.8c-20.8.3-41.6.7-62.5.9l-62.5.7c-20.8.1-41.7.3-62.5.3l.1 4.9c20.8-.7 41.6-1.2 62.5-1.8l62.5-1.5c20.8-.5 41.6-.9 62.5-1.3l54.2-1.1-52.7 13c-20.2 5-40.4 10-60.7 14.9L68.1 294c-20.3 4.8-40.5 9.7-60.8 14.4l1.2 4.8c20.1-5.4 40.3-10.6 60.4-15.8l60.5-15.5c20.2-5.2 40.4-10.2 60.6-15.3l52.6-13.2-48.4 24.5c-18.6 9.4-37.1 18.9-55.8 28.2l-55.9 28c-18.7 9.2-37.3 18.5-56 27.7l2.2 4.4c18.4-9.8 36.9-19.4 55.3-29l55.5-28.7c18.5-9.6 37-19 55.6-28.6l48.3-24.7-41.6 34.8c-16 13.3-31.9 26.7-48 40l-48.1 39.8c-16.1 13.2-32.2 26.5-48.3 39.6l3.2 3.8c15.7-13.7 31.6-27.2 47.4-40.7l47.6-40.5c15.8-13.5 31.8-26.9 47.7-40.3l41.5-35-32.7 43.2c-12.6 16.6-25.1 33.2-37.8 49.8l-37.9 49.6c-12.7 16.5-25.4 33-38.2 49.4l3.9 3c12.3-16.8 24.7-33.6 37-50.4l37.3-50.2c12.4-16.7 24.9-33.4 37.4-50l32.5-43.4-22.2 49.5c-8.5 19-17 38-25.6 57l-25.8 56.9c-8.7 18.9-17.3 37.9-26.1 56.8l4.5 2c8.2-19.2 16.5-38.3 24.7-57.4l25-57.3c8.3-19.1 16.8-38.1 25.2-57.2l22-49.6-11 52.6c-4 20.4-8 40.9-12.1 61.3l-12.3 61.2c-4.2 20.4-8.3 40.8-12.7 61.2l4.8.9c3.6-20.5 7.5-41 11.2-61.5l11.5-61.4c3.8-20.5 7.8-40.9 11.7-61.4l9.9-51.8-.1 52.7c-.1 20.8 0 41.7-.2 62.5l-.4 62.5c-.3 20.8-.4 41.7-.8 62.5h4.9c-.3-20.8-.5-41.7-.8-62.5l-.4-62.5c-.2-20.8-.1-41.7-.2-62.5l-.1-54.2 12.1 53c4.6 20.3 9.3 40.6 13.8 60.9l13.6 61c4.4 20.3 9 40.7 13.3 61l4.8-1.1c-5-20.2-9.9-40.5-14.8-60.7l-14.5-60.8c-4.9-20.3-9.5-40.6-14.3-60.8l-12.3-52.8 23.7 48.8c9.1 18.7 18.2 37.5 27.2 56.3l27 56.3c8.9 18.8 17.9 37.6 26.7 56.5l4.4-2.2c-9.4-18.6-18.7-37.2-28.1-55.8l-27.8-56c-9.3-18.6-18.4-37.4-27.6-56.1l-23.9-48.7 34 42.2c13.1 16.2 26.2 32.4 39.1 48.7l39 48.8c12.9 16.3 25.9 32.6 38.7 49l3.8-3.1c-13.4-16-26.6-32.1-39.9-48.1L329.2 346c-13.3-16.1-26.3-32.3-39.5-48.4l-34.2-42.1 42.7 33.5c16.4 12.9 32.8 25.7 49.1 38.6l49 38.8c16.3 13 32.6 26 48.8 39.1l3-3.9c-16.6-12.5-33.1-25.3-49.7-37.9l-49.5-38.1c-16.5-12.7-32.9-25.5-49.4-38.3L256.7 254l49.1 23c18.8 8.9 37.7 17.6 56.5 26.6l56.4 26.8c18.8 9 37.6 18 56.3 27.1l2.1-4.5c-19-8.5-38-17.2-56.9-25.7l-56.8-26c-19-8.6-37.8-17.5-56.7-26.2l-49.2-22.8 53 11.4c20.4 4.4 40.7 8.7 61.1 13.2l61 13.4c20.3 4.6 40.7 9.1 61 13.7l1-4.8c-20.4-4-40.8-8.2-61.3-12.3l-60.8-12.3z" class="st0" data-v-c2a89286="" data-v-3c1d4110=""/></svg>