<svg fill="#fff" data-name="Layer 1" xmlns="http://www.w3.org/2000/svg" viewBox="0 0 37.07 32.68" preserveAspectRatio="xMidYMid meet"><path d="M29.07 32.68a1 1 0 1 1 0-2 6 6 0 0 0 6-6V8a6 6 0 0 0-6-6H8a6 6 0 0 0-6 6v16.68a6 6 0 0 0 6 6h15.92a1 1 0 0 1 0 2H8a8 8 0 0 1-8-8V8a8 8 0 0 1 8-8h21.07a8 8 0 0 1 8 8v16.68a8 8 0 0 1-8 8z"/><path d="M22.39 13a2.93 2.93 0 0 0-2.66 1.47v-1.3h-3v8.89h3v-5a2 2 0 0 1 .1-.72 1.62 1.62 0 0 1 1.52-1.08c1.07 0 1.5.82 1.5 2v4.76h3V17c-.06-2.77-1.52-4-3.46-4z"/><path d="M13.67 8.88a1.54 1.54 0 1 0 0 3.07 1.54 1.54 0 1 0 0-3.07z"/><path d="M12.18 13.17h2.96v8.89h-2.96z"/></svg>