<svg fill="#fff" data-name="Layer 1" xmlns="http://www.w3.org/2000/svg" viewBox="0 0 37.07 32.68" preserveAspectRatio="xMidYMid meet"><path d="M29.07 32.68a1 1 0 0 1 0-2 6 6 0 0 0 6-6V8a6 6 0 0 0-6-6H8a6 6 0 0 0-6 6v16.68a6 6 0 0 0 6 6h15.92a1 1 0 0 1 0 2H8a8 8 0 0 1-8-8V8a8 8 0 0 1 8-8h21.07a8 8 0 0 1 8 8v16.68a8 8 0 0 1-8 8z"/><path d="M27.28 11.7a6.37 6.37 0 0 1-1.83.5 3.2 3.2 0 0 0 1.4-1.76 6.38 6.38 0 0 1-2 .77 3.19 3.19 0 0 0-5.43 2.91 9 9 0 0 1-6.57-3.33 3.19 3.19 0 0 0 1 4.26 3.17 3.17 0 0 1-1.44-.4 3.19 3.19 0 0 0 2.56 3.13 3.19 3.19 0 0 1-1.44.05 3.19 3.19 0 0 0 3 2.21 6.4 6.4 0 0 1-4 1.36 6.47 6.47 0 0 1-.76 0 9.06 9.06 0 0 0 14-7.64v-.41a6.48 6.48 0 0 0 1.51-1.65z"/></svg>