<svg xmlns="http://www.w3.org/2000/svg" width="184" height="100" viewBox="0 0 184 100">
    <path fill-rule="evenodd" d="M90.185 65.164l2.867 6.717c-.72.17-.79.135-1.039-.476l-.534-1.304c-.802 0-1.59-.008-2.378.01-.1.002-.242.112-.29.209-.16.329-.29.673-.426 1.013-.261.656-.26.657-1.079.567l2.879-6.736zm42.569.742c.651.349.818.948.765 1.628-.054.697-.398 1.2-1.065 1.46-.137.054-.282.087-.47.144l1.945 2.74c-.741.15-.811.122-1.167-.394-.478-.694-.959-1.387-1.441-2.078-.06-.086-.136-.161-.29-.341v2.883c-.23 0-.377.033-.496-.01-.106-.038-.257-.16-.258-.247-.014-2.01-.01-4.02-.01-6.08.86-.03 1.704-.123 2.487.295zm-88.98-.742l2.863 6.707c-.739.167-.78.147-1.034-.474-.138-.339-.285-.675-.407-1.02-.075-.212-.196-.29-.421-.286-.67.012-1.339-.01-2.007.016-.133.005-.316.133-.38.255-.166.31-.276.648-.41.974-.273.659-.274.659-1.075.562l2.871-6.734zm36.416.812c.612.379.712.99.644 1.645-.07.69-.455 1.144-1.1 1.387-.123.047-.254.073-.424.12l1.953 2.768c-.56.11-.945.047-1.24-.468-.39-.682-.883-1.306-1.334-1.954-.075-.108-.16-.21-.316-.414-.026.221-.049.329-.05.436-.005.612-.004 1.224-.007 1.836-.002.64-.002.64-.7.579v-6.304l.408-.016c.747-.028 1.488-.034 2.166.385zm-24.104-.194c1.01.39 1.28 1.913.376 2.746.713.287 1.069.797 1.057 1.57-.015.947-.543 1.603-1.478 1.77-.201.035-.407.063-.61.066-.517.01-1.034.003-1.584.003v-6.34c.746-.008 1.503-.1 2.239.185zm11.78-.383c1.918.004 3.41 1.473 3.39 3.34-.017 1.766-1.543 3.194-3.415 3.198-1.855.004-3.375-1.449-3.375-3.225 0-1.894 1.46-3.317 3.4-3.313zm43.356.002c1.908.006 3.396 1.446 3.391 3.281-.005 1.821-1.529 3.268-3.428 3.255-1.869-.014-3.375-1.473-3.375-3.27 0-1.827 1.51-3.272 3.412-3.266zm43.101.994l-.557.343c-.161-.165-.293-.345-.466-.468-.38-.268-.789-.278-1.193-.039-.627.37-.659 1.113-.034 1.482.48.283 1.006.487 1.501.746.477.25.832.603.947 1.16.201.972-.414 1.974-1.391 2.236-1.07.288-2.186-.274-2.477-1.258-.172-.584.363-.335.571-.504.1.213.17.404.275.574.313.513.909.705 1.503.5.518-.177.857-.695.817-1.233-.035-.485-.362-.744-.749-.942-.327-.168-.671-.302-1.005-.458-.884-.412-1.26-.973-1.157-1.72.096-.702.641-1.256 1.365-1.388.884-.162 1.628.182 2.05.969zm-31.853-.781v6.313h-.781v-6.313h.781zm-20.242 0v.64c-.394 0-.761.017-1.126-.005-.309-.019-.396.093-.394.396.012 1.63.003 3.26.001 4.889v.38h-.731v-1.017c0-1.385-.015-2.77.011-4.156.008-.407-.127-.524-.512-.49-.322.03-.65.006-1.002.006v-.642h3.753zm-69.619.008v5.636h1.206c.603 0 .603.001.523.653h-2.419v-6.29h.69zm111.806-.01v.638h-2.714v1.86h2.491v.675h-2.514v2.452h2.728v.666h-3.458v-6.292h3.467zm-89.97 3.203c0 .817-.008 1.52.01 2.224.002.087.144.242.223.243.407.006.823.016 1.22-.059.577-.109.853-.47.876-1.02.027-.606-.213-1.036-.775-1.182-.478-.123-.985-.135-1.554-.206zm56.804-2.746c-1.515-.007-2.697 1.15-2.692 2.636.005 1.347 1.199 2.528 2.578 2.55 1.484.022 2.72-1.137 2.735-2.564.013-1.437-1.164-2.615-2.621-2.622zm-43.402-.001c-1.44-.017-2.616 1.125-2.633 2.554-.017 1.482 1.15 2.624 2.69 2.63 1.382.006 2.573-1.152 2.592-2.52.022-1.504-1.114-2.646-2.65-2.664zm-24.074.797l-1.031 2.583h2.069l-1.038-2.583zm46.462.118l-.102.005-.975 2.448h2.056l-.98-2.453zm40.79-.727v2.25c.62.005 1.225.044 1.61-.518.269-.392.248-.847-.004-1.233-.381-.585-1.013-.441-1.606-.499zm-52.682.01v2.208c.697.111 1.364-.08 1.608-.453.236-.363.248-.973-.015-1.307-.411-.522-1.006-.415-1.593-.449zm-23.87-.016v2.005c.342-.022.653-.024.958-.066.596-.082.843-.359.84-.901-.004-.622-.276-.966-.863-1.032-.305-.034-.617-.006-.934-.006zM16.41 28.128c.133.016.265.046.397.046 1.267.004 2.534.004 3.801 0 .187 0 .374-.03.56-.046h.083c.112.121.26.225.331.367.378.753.734 1.517 1.1 2.276 2.611 5.407 5.224 10.813 7.833 16.22.454.939.897 1.883 1.386 2.91l10.352-21.773h.164c.16.017.32.048.48.048 1.402.003 2.804.002 4.206-.002.134 0 .267-.03.4-.046h.082c-.022.146-.01.31-.073.437-2.281 4.645-4.57 9.287-6.858 13.93l-7.995 16.23c-.255.519-.513 1.036-.806 1.625-.384-.768-.736-1.467-1.083-2.169l-5.74-11.624c-2.758-5.59-5.516-11.18-8.27-16.773-.269-.545-.507-1.104-.76-1.656h.41zm76.285 1.633c1.059.44 1.063.43 1.063 1.563v3.549c0 .131-.011.262-.016.36-1.055-.544-2.043-1.174-3.116-1.584-4.752-1.815-9.436-1.642-13.802 1.037-3.955 2.425-5.723 6.12-5.28 10.724.435 4.53 2.968 7.644 7.118 9.377 4.582 1.913 9.134 1.653 13.544-.657.513-.269.99-.606 1.527-.938.01.192.025.335.025.479.002 1.4-.004 2.8.007 4.2.002.276-.07.432-.34.558-2.301 1.072-4.712 1.694-7.249 1.862-3.523.234-6.899-.351-10.056-1.917-4.806-2.384-8.106-6.05-9.195-11.389-.725-3.556-.114-6.96 1.75-10.092 2.629-4.41 6.59-7.028 11.541-8.187 4.258-.997 8.432-.629 12.48 1.055zm37.176-1.633l.034.348c.005.058.008.116.008.174.003 10.335.004 20.67.005 31.005v.668h-5.28V45.956h-18.425v14.367h-5.27V28.222h5.252V41.91h18.44V28.187h1.85c.97 0 1.94 0 2.911-.005.131 0 .262-.035.393-.054h.082zm9.724.047c.374-.006.593.124.812.406 3.506 4.533 7.021 9.058 10.535 13.584.067.086.137.169.245.301.143-.18.274-.341.401-.505l9.368-12.064c.392-.505.78-1.015 1.183-1.511.075-.093.214-.19.324-.19 1.79-.012 3.58-.009 5.468-.009-.379.496-.706.931-1.04 1.36l-12.189 15.615c-.184.236-.337.503-.553.706-.447.42-.524.92-.52 1.508.02 4.092.01 8.185.01 12.278v.668h-4.875c-.01-.127-.027-.256-.026-.385 0-4.337.006-8.675-.004-13.012 0-.224-.08-.49-.215-.665-2.812-3.625-5.637-7.239-8.46-10.855l-5.376-6.89c-.064-.082-.118-.17-.226-.328h.504c1.545 0 3.09.013 4.634-.012zm-79.347.03V60.32h-5.207V28.205h5.207z"/>
</svg>
