<svg xmlns="http://www.w3.org/2000/svg" width="184" height="100" viewBox="0 0 184 100">
    <path fill-rule="evenodd" d="M145.17 41.264c.614.046 1.132.543 1.208 1.168.015.12.008.243.008.364 0 5.11.027 10.22-.012 15.33-.019 2.526-.719 4.829-2.647 6.607-1.278 1.178-2.823 1.786-4.518 2.031-1.951.283-3.864.168-5.68-.684-1.695-.796-2.932-2.064-3.754-3.742-.34-.694-.089-1.458.563-1.774.667-.323 1.393-.072 1.744.634 1.004 2.023 2.717 2.927 4.876 3.099 1.202.095 2.393-.03 3.506-.525 2.185-.972 3.112-2.805 3.303-5.076.076-.896.012-1.805.012-2.823-1.978 1.778-4.239 2.56-6.8 2.238-2.563-.322-4.567-1.619-5.988-3.784-2.248-3.426-1.682-7.931 1.401-10.857 2.651-2.516 7.441-3.35 11.355.042.04-.46.03-.882.12-1.282.139-.62.707-1.01 1.302-.966zm13.428.06c2.408.188 4.247 1.334 5.541 3.371.32.504.338 1.016-.004 1.51-.325.468-.826.634-1.328.465-.343-.115-.694-.398-.9-.702-1.301-1.928-3.705-2.645-5.799-1.685-1.316.603-1.95 1.789-1.622 3.012.189.701.669 1.15 1.31 1.37 1.123.386 2.277.68 3.408 1.044 1.032.331 2.092.615 3.068 1.074 3.545 1.665 3.243 6.347.73 8.235-1.42 1.067-3.036 1.444-5.356 1.471-2.355-.005-4.417-1.46-5.834-3.947-.38-.669-.134-1.468.494-1.8.645-.34 1.387-.117 1.774.567.934 1.65 2.275 2.647 4.225 2.603 1.058-.024 2.082-.212 2.992-.851 1.203-.846 1.682-3.297-.405-4.085-1.286-.486-2.647-.767-3.96-1.185-.884-.28-1.784-.56-2.607-.977-3.013-1.526-3.162-5.234-1.281-7.409 1.467-1.695 3.385-2.251 5.554-2.081zm-76.577-6.821c.007 2.625.003 5.25.003 7.874v.49c.977-.445 1.892-.995 2.883-1.288 4.23-1.254 8.686 1.685 9.282 6.065.063.463.1.932.1 1.399.01 3.354.001 6.71.01 10.064 0 .566-.236.97-.724 1.22-.458.236-.917.168-1.325-.122-.456-.323-.542-.817-.541-1.339.001-3.337.02-6.675-.007-10.012-.017-2.177-1.074-3.742-3.042-4.613-3.033-1.343-6.623 1.04-6.634 4.37-.011 3.476.002 6.953-.005 10.429-.002 1.136-1.037 1.79-1.941 1.214-.24-.154-.42-.445-.553-.71-.094-.188-.085-.439-.085-.662-.004-8.083-.004-16.165-.003-24.248 0-.837.404-1.413 1.052-1.51.894-.134 1.528.426 1.53 1.379zm29.105 6.893c.466.228.751.604.743 1.155-.003.137 0 .274 0 .531 1.054-.83 2.114-1.38 3.321-1.63 3.923-.814 7.768 1.595 8.722 5.509.158.65.232 1.336.237 2.006.024 3.337.009 6.674.013 10.011 0 .534-.124.994-.614 1.288-.902.54-1.933-.073-1.936-1.17-.008-3.354 0-6.709-.005-10.063-.003-2.32-1.412-4.306-3.496-4.954-3.062-.95-6.222 1.397-6.238 4.66-.018 3.458-.008 6.917-.001 10.376 0 .589-.253.997-.777 1.234-.492.222-.955.123-1.356-.213-.41-.345-.455-.837-.455-1.332V42.9c0-.5.064-.983.48-1.32.408-.332.882-.419 1.362-.185zm-9.35-.137c.806-.014 1.326.567 1.327 1.519.005 3.944.002 7.888.003 11.832 0 1.442.003 2.884-.002 4.327-.002.542-.125 1.035-.641 1.333-.898.518-1.936-.076-1.94-1.127-.008-2.763-.002-5.525-.002-8.288v-8.08c0-.94.468-1.503 1.255-1.516zM67.85 53.969c.138.424.245.87.452 1.261.84 1.585 2.157 2.478 3.953 2.635.171.015.342.037.513.057.778.093 1.207.6 1.16 1.373-.04.688-.545 1.15-1.27 1.164h-.312c-3.301-.025-6.376-2.606-6.992-5.87-.133-.707.263-1.376.907-1.528.71-.17 1.361.207 1.589.907zM20.678 41.305c.508.16.775.526.93 1.027 1.412 4.558 2.835 9.112 4.256 13.667.024.08.06.155.139.35.429-1.174.821-2.244 1.21-3.315 1.253-3.446 2.503-6.892 3.758-10.336.342-.94.998-1.433 1.884-1.441.899-.009 1.568.482 1.922 1.452 1.576 4.322 3.145 8.646 4.717 12.97.07.193.15.384.274.697l.966-3.101c1.14-3.665 2.28-7.33 3.423-10.993.199-.64.597-.982 1.16-1.022.557-.04 1.08.22 1.246.735.105.326.135.736.037 1.059-1.634 5.34-3.29 10.672-4.948 16.005-.264.85-.97 1.383-1.801 1.395-.864.013-1.518-.452-1.838-1.328-1.626-4.451-3.247-8.903-4.87-13.354-.075-.204-.157-.406-.274-.711-.487 1.332-.938 2.564-1.387 3.797-1.249 3.427-2.495 6.856-3.745 10.283-.311.853-.989 1.328-1.851 1.314-.84-.014-1.52-.543-1.788-1.406l-5.036-16.246c-.01-.031-.041-.055-.062-.082v-.417c.42-.866.997-1.212 1.678-.999zm33.625.907c.05.18.05.377.051.566l.002 4.039V58.988c-.001.865-.518 1.459-1.27 1.468-.79.01-1.327-.571-1.328-1.47-.003-5.42-.003-10.84 0-16.26 0-.807.45-1.377 1.122-1.462.651-.083 1.243.303 1.423.95zm83.725 1.656c-3.207-.002-5.781 2.581-5.805 5.825-.023 3.255 2.563 5.878 5.795 5.878 3.187 0 5.767-2.59 5.768-5.79.002-3.298-2.542-5.91-5.758-5.913zm-71.558-8.8c.77.002 1.291.543 1.298 1.38.01 1.407.003 2.814.003 4.22v.593h.571c1.386 0 2.77-.003 4.156.001.878.003 1.435.505 1.442 1.288.008.807-.552 1.316-1.464 1.318-1.54.003-3.08 0-4.705 0v.562c0 1.407.005 2.814-.003 4.22-.004.764-.423 1.298-1.063 1.39-.882.127-1.524-.415-1.531-1.323-.011-1.406-.003-2.813-.003-4.22v-.629c-1.647 0-3.221.005-4.795-.002-.803-.003-1.331-.466-1.378-1.183-.055-.84.479-1.413 1.351-1.42 1.403-.01 2.806-.002 4.208-.002h.614v-3.624c0-.4-.005-.799.001-1.198.012-.84.517-1.372 1.298-1.37zm35.339-1.962c1.061.005 1.851.815 1.844 1.89-.006 1.038-.81 1.85-1.841 1.862-1.019.012-1.891-.86-1.887-1.885.004-1.054.83-1.872 1.884-1.867zm-48.776.001c1.075-.01 1.884.783 1.886 1.849.003 1.054-.829 1.908-1.853 1.903-1.044-.006-1.86-.839-1.857-1.897.003-1.057.779-1.845 1.824-1.855z"/>
</svg>
