<svg xmlns="http://www.w3.org/2000/svg" width="184" height="100" viewBox="0 0 184 100">
    <path fill-rule="evenodd" d="M79.795 38.79c-.45.023-.85.037-1.25.063-1.275.084-2.213.716-2.87 1.801-.527.87-.796 1.833-1.005 2.817-.323 1.527-.55 3.07-.604 4.63-.025.747.008 1.507.128 2.242.19 1.171.935 1.719 2.19 1.563.635-.08 1.192-.352 1.726-.692.156-.1.221-.219.235-.4.022-.306.066-.61.103-.916.098-.81.199-1.621.297-2.432l.286-2.366.341-2.79c.099-.804.198-1.607.295-2.41.042-.349.08-.698.128-1.11M34.247 56.003c2.696 1.16 5.255 2.56 7.605 4.335 2.15 1.625 4.047 3.51 5.726 5.621.15.19.283.259.54.206 1.667-.343 3.337-.676 5.012-.984 1.448-.267 2.902-.502 4.355-.74 1.22-.2 2.44-.395 3.661-.574 1.15-.168 2.302-.314 3.453-.465 1.13-.15 2.259-.298 3.39-.437.85-.104 1.702-.19 2.554-.285.903-.1 1.806-.204 2.71-.297.712-.073 1.425-.134 2.137-.198.788-.072 1.574-.143 2.362-.211.78-.067 1.56-.133 2.34-.193.893-.07 1.785-.134 2.678-.197.819-.058 1.637-.114 2.456-.164 1.155-.07 2.31-.137 3.464-.201.775-.043 1.55-.081 2.325-.115 1.32-.058 2.64-.115 3.96-.166 1.045-.04 2.09-.09 3.134-.102 4.883-.053 9.766-.122 14.65-.128 2.799-.004 5.598.097 8.397.16 1.642.038 3.284.087 4.925.148 1.551.058 3.102.137 4.652.21 1.29.062 2.58.122 3.868.196 1.386.078 2.77.17 4.155.258.968.062 1.935.125 2.903.192.438.03.875.07 1.353.11l-.057.475h-1.868c-4.353.002-8.706-.017-13.06.014-2.62.019-5.24.102-7.86.179-1.887.055-3.774.14-5.66.223-1.484.065-2.967.138-4.45.225-1.534.09-3.067.198-4.6.303-1.294.09-2.589.178-3.882.283-1.1.088-2.198.2-3.296.302-1.158.108-2.316.21-3.473.328-1.037.106-2.073.228-3.11.345-.954.108-1.91.214-2.863.33-.865.104-1.729.216-2.592.334-1.01.138-2.02.283-3.029.43-1.134.165-2.269.327-3.4.506-1.14.18-2.277.371-3.412.575-1.53.275-3.06.546-4.582.857-2.266.462-4.528.94-6.784 1.445-3.482.78-6.924 1.717-10.347 2.731-3.031.899-6.028 1.899-8.987 3.016l-.107.039c-.119-.327-.24-.646-.352-.969-1.663-4.764-4.071-9.117-7.198-13.058-1.267-1.596-2.626-3.118-3.944-4.673-.033-.04-.069-.077-.099-.111.035-.168.12-.162.247-.108zM137.722 33.67c1.75.16 3.439.55 4.956 1.494 1.658 1.031 2.646 2.54 3.048 4.443.117.555.16 1.127.237 1.69.008.06.024.117.037.175v1.94c-.029.39-.063.777-.086 1.166-.122 2.027-.403 4.024-1.03 5.962-.53 1.633-1.301 3.128-2.496 4.37-1.273 1.325-2.839 2.136-4.602 2.582-1.802.456-3.633.555-5.481.471-1.097-.049-2.184-.16-3.25-.426-1.571-.392-3.017-1.028-4.153-2.242-1.02-1.09-1.571-2.405-1.8-3.868-.226-1.457-.18-2.92-.095-4.385.1-1.726.32-3.432.77-5.103.486-1.807 1.221-3.49 2.455-4.92 1-1.157 2.227-1.986 3.644-2.532 1.416-.545 2.893-.787 4.402-.877 1.151-.069 2.3-.045 3.444.06zm-51.44.163c.732.005 1.463.037 2.194.058.096.003.191.01.326.018l-2.844 23.374h-7.945l.204-1.728c-.123.057-.21.09-.29.135-1.297.747-2.647 1.363-4.114 1.689-1.079.24-2.165.301-3.265.173-.83-.096-1.623-.298-2.355-.71-1.109-.626-1.801-1.591-2.216-2.78-.346-.991-.504-2.02-.534-3.065-.027-.916-.052-1.836.004-2.75.19-3.074.785-6.05 2.36-8.744 1.6-2.74 3.984-4.423 7.04-5.163 1.411-.34 2.843-.533 4.292-.54 2.38-.01 4.762.015 7.143.033zm27.55-.214c2.025.159 3.932.656 5.543 1.987 1.276 1.053 2.009 2.43 2.34 4.037.252 1.223.255 2.457.146 3.699-.127 1.452-.413 2.874-.74 4.319h-12.668c.039 1.131.1 2.233.974 3.071.558.536 1.26.783 1.998.932.91.184 1.836.246 2.76.217 1.288-.041 2.565-.218 3.824-.506.528-.12 1.053-.25 1.622-.385l-1.025 5.654c-.563.114-1.133.262-1.71.34-1.174.16-2.348.33-3.528.405-1.197.076-2.402.083-3.602.05-1.748-.047-3.47-.287-5.113-.937-2.474-.98-4.006-2.756-4.493-5.412-.21-1.151-.245-2.314-.185-3.478.054-1.034.116-2.07.24-3.097.24-1.99.718-3.917 1.664-5.7 1.27-2.394 3.23-3.916 5.813-4.652.935-.266 1.887-.415 2.852-.501 1.095-.098 2.19-.128 3.287-.043zm-42.463-7.53c-.06.18-.114.342-.17.503-2.682 7.741-5.942 15.233-9.637 22.534-1.359 2.686-2.794 5.331-4.192 7.997-.062.117-.128.176-.272.176-3.01-.005-6.019-.004-9.028-.004-.052 0-.104-.005-.18-.01-2.567-10.248-4.338-20.598-4.595-31.193h9.722c.058 7.344.333 14.676 1.397 21.966 3.347-7.085 6.066-14.396 8.072-21.97h8.883zm29.214-.005c-1.273 10.404-2.545 20.795-3.82 31.197h-8.397l3.81-31.197h8.407zm32.787 13.234c-.26.456-.472.954-.624 1.457-.43 1.424-.625 2.895-.77 4.372-.132 1.337-.256 2.675-.353 3.697.007 1.197.007 2.076.264 2.929.432 1.43 2.154 1.948 3.268.98.425-.37.663-.867.848-1.385.595-1.671.784-3.424.987-5.172.098-.849.187-1.7.241-2.554.05-.771.067-1.546.055-2.32-.01-.614-.097-1.225-.335-1.802-.17-.415-.42-.774-.835-.96-.886-.396-2.135-.316-2.746.758zm-23.93.604c-.216.528-.35 1.094-.488 1.65-.096.388-.136.79-.203 1.2h5.024c.182-.808.32-1.618.268-2.449-.011-.193-.048-.387-.1-.574-.248-.901-.918-1.433-1.85-1.483-1.315-.07-2.148.428-2.65 1.656z"/>
</svg>
