<svg xmlns="http://www.w3.org/2000/svg" width="184" height="100" viewBox="0 0 184 100">
    <path fill-rule="evenodd" d="M136.819 37.59c3.937.966 6.313 3.481 7.063 7.512.03.162.004.336.004.643-1.503 0-2.989.023-4.472-.025-.216-.007-.555-.321-.611-.55-.962-3.9-6.88-4.865-9.537-1.299-2.067 2.775-2.124 8.466-.013 11.22 1.49 1.942 3.501 2.564 5.832 2.106 2.165-.426 3.269-1.963 3.823-3.993.064-.235.113-.474.177-.71.018-.066.06-.125.159-.318h5.293c-.38 3.262-1.642 5.878-4.26 7.706-5.447 3.802-15.993 2.374-17.62-7.852-.45-2.833-.201-5.6.926-8.226 2.395-5.58 8.02-7.492 13.236-6.213zm-42.915.185c1.006.053 2.019.066 3.023.004.755-.046 1.003.274 1.17.97 1.139 4.753 2.322 9.496 3.492 14.242.022.09.066.175.212.552.515-2.137.975-4.015 1.42-5.896.717-3.025 1.411-6.056 2.156-9.075.073-.293.422-.725.66-.736 1.483-.068 2.97-.034 4.648-.034l-6.248 23.394c-1.619 0-3.111-.026-4.602.011-.735.019-.72-.516-.832-.968-1.117-4.543-2.227-9.088-3.341-13.632-.063-.255-.147-.505-.31-1.064-.608 2.45-1.149 4.605-1.675 6.763-.654 2.681-1.32 5.358-1.926 8.05-.158.705-.49.888-1.148.855-.937-.046-1.878.008-2.816-.017-1.815-.048-1.44.382-1.953-1.537-1.463-5.465-2.873-10.943-4.305-16.416-.46-1.755-.924-3.508-1.433-5.44 1.692 0 3.245-.037 4.792.042.234.012.562.54.642.878.854 3.601 1.662 7.214 2.492 10.82.273 1.184.574 2.362.925 3.797.213-.665.373-1.082.482-1.511 1.105-4.367 2.223-8.73 3.281-13.108.177-.73.473-.981 1.194-.944zm-62.581.017c.34 0 .68.028 1.078.046v4.32h-11.12v5.224c.41.021.81.059 1.21.06 2.503.005 5.007.02 7.51-.01.699-.008 1.018.187.98.947-.052 1.006-.014 2.016-.014 3.141h-9.716v9.688H16v-23.32c.936-.031 1.871-.09 2.807-.092 4.172-.01 8.344-.007 12.516-.004zm120.681.056c.168.007.444.541.448.835.037 2.309.02 4.619.02 6.928v1.355l.296.234 1.14-1.327c.191-.22.385-.437.583-.65 2.107-2.278 4.222-4.547 6.347-6.807.228-.243.536-.572.814-.579 1.995-.05 3.99-.026 5.986-.026l.116.265-9.085 8.668 10.144 14.446c-2.278 0-4.271.023-6.262-.03-.25-.007-.543-.381-.723-.648-1.873-2.779-3.726-5.57-5.586-8.357-.27-.404-.546-.804-.93-1.366-.913.94-1.803 1.796-2.609 2.726-.211.244-.217.717-.22 1.086-.02 2.159-.01 4.318-.01 6.59-1.645 0-3.165.01-4.684-.003-.756-.007-.527-.613-.53-1.012-.015-3.814-.011-7.628-.012-11.442l-.001-9.658V37.81c1.658 0 3.21-.027 4.758.038zm-89.682-.01c.33.019.718.48.936.83 2.846 4.56 5.666 9.138 8.495 13.71.127.205.273.399.564.82V37.84h4.83v23.345l-2.438.007c-.812 0-1.622-.008-2.432-.039-.24-.009-.52-.41-.69-.687-2.704-4.362-5.39-8.734-8.086-13.101-.252-.408-.534-.798-1.035-1.158V61.14h-4.827v-23.34c1.574 0 3.132-.049 4.683.039zm56.48.021v23.255h-5.072V37.86h5.071zm-81.805-.09c5.076.047 10.152.022 15.228.026.34 0 .679.032 1.078.052v4.287H41.137v4.96h11.11v4.073H41.145v5.617h12.4v4.326H35.925c-.019-.363-.052-.703-.052-1.042-.003-7.034.013-14.068-.022-21.102-.004-.897.198-1.206 1.145-1.197z"/>
</svg>
