<svg xmlns="http://www.w3.org/2000/svg" width="184" height="100" viewBox="0 0 184 100">
    <path fill-rule="evenodd" d="M67.436 53.73c-.496.069-.958.122-1.417.199-1.78.297-3.493.805-5.03 1.78-2.558 1.626-3.89 3.911-3.612 7.015.149 1.658 1.21 2.854 2.783 3.166 1.115.221 2.174.032 3.154-.534 1.698-.98 2.736-2.492 3.352-4.32.577-1.715.734-3.496.768-5.292.013-.653.002-1.306.002-2.014m68.699-10.637c3.628 1.266 5.89 3.851 6.985 7.512.441 1.473.605 2.986.611 4.52-.012 2.328-.397 4.578-1.466 6.668-1.611 3.15-4.199 5.028-7.613 5.75-2.589.548-5.175.474-7.698-.373-3.369-1.13-5.668-3.42-6.83-6.774-1.246-3.595-1.244-7.24.093-10.81 1.435-3.832 4.26-6.107 8.225-6.928 2.592-.536 5.18-.442 7.693.435zm-69.098-.171c2.564.731 4.122 2.431 4.772 5.01.32 1.27.434 2.563.437 3.867.009 3.661-.002 7.323.01 10.985.002.495.035 1.004.156 1.481.264 1.05 1.177 1.572 2.165 1.3.538-.148.912-.504 1.087-1.018.165-.485.25-.997.376-1.527h1.1c-.038.372-.051.73-.114 1.079-.373 2.078-1.723 3.387-3.801 3.689-1.044.152-2.08.174-3.063-.296-1.145-.547-1.786-1.52-2.14-2.691-.208-.685-.319-1.4-.46-2.039-.401.553-.802 1.191-1.286 1.757-1.795 2.097-4.095 3.184-6.834 3.34-1.344.076-2.664-.05-3.934-.534-2.131-.814-3.353-2.627-3.412-4.92-.073-2.796 1.244-4.808 3.41-6.377 1.637-1.185 3.498-1.861 5.419-2.394 2.05-.569 4.144-.897 6.257-1.11.134-.013.273.013.276-.203.018-1.717-.012-3.432-.564-5.079-.187-.56-.437-1.114-.752-1.61-.878-1.383-2.219-1.955-3.798-1.964-.644-.003-1.31.072-1.93.243-1.116.307-1.644 1.167-1.486 2.325.068.498.21.992.366 1.472.218.67.33 1.351.286 2.05-.06.933-.52 1.609-1.386 1.967-.787.326-1.609.385-2.433.176-1.273-.323-2.053-1.4-2.067-2.852-.023-2.462 1.084-4.27 3.197-5.467 1.376-.779 2.884-1.1 4.446-1.184 1.924-.104 3.833-.008 5.7.524zm85.817-8.37v8.797h7.023v1.512h-7.009v.341c0 5.416-.001 10.83.002 16.246 0 .845.079 1.682.405 2.474.545 1.324 1.537 2.025 2.96 2.03 1.364.006 2.357-.644 2.948-1.885.386-.809.509-1.678.544-2.587h1.213c.018.8-.089 1.58-.317 2.34-.676 2.255-2.441 3.712-4.787 3.973-1.122.124-2.237.117-3.33-.201-2.197-.64-3.471-2.166-4.063-4.33-.257-.94-.356-1.903-.357-2.875-.002-5.043 0-10.086 0-15.129v-.39h-4.369v-.971c.466-.072.939-.12 1.4-.222 2.606-.58 4.386-2.171 5.487-4.578.595-1.302.906-2.68 1.047-4.1.015-.145.034-.29.052-.446h1.151zm-58.807 7.915c1.958.39 3.223 2.154 3.054 4.154-.078.927-.31 1.79-.935 2.508-.768.88-2.218 1.243-3.292.796-.907-.378-1.38-1.086-1.43-2.066-.021-.41.015-.822.002-1.232-.027-.87-.438-1.406-1.597-1.177-.537.106-.944.455-1.295.858-.97 1.115-1.534 2.437-1.898 3.854-.388 1.514-.557 3.062-.58 4.62-.041 2.74-.043 5.48-.047 8.221 0 .339.06.684.137 1.015.284 1.22 1.156 1.82 2.297 2.058.663.138 1.348.172 2.024.245.17.018.345.002.545.002v.986H77.505v-.94c.427-.05.845-.074 1.252-.153 1.52-.296 2.331-1.214 2.465-2.773.03-.34.045-.683.045-1.025.003-4.71.005-9.42-.002-14.13-.001-.418-.045-.84-.104-1.255-.143-1.02-.726-1.686-1.72-1.908-.651-.145-1.327-.176-1.992-.255-.085-.01-.173-.001-.285-.001v-.985c3.16-.067 6.31-.172 9.258-1.499l-.457 5.812.087.018c.029-.072.06-.143.086-.216.681-1.875 1.734-3.486 3.394-4.622 1.365-.933 2.899-1.233 4.515-.91zm21.366-.007c2.047.405 3.316 2.242 3.074 4.33-.111.958-.385 1.834-1.103 2.521-.884.847-2.411 1.06-3.418.462-.729-.434-1.094-1.095-1.122-1.938-.014-.42.018-.841.003-1.26-.034-.936-.574-1.315-1.557-1.135-.571.104-1 .475-1.364.906-1.07 1.26-1.65 2.753-1.994 4.35-.362 1.682-.471 3.39-.492 5.103-.027 2.291-.021 4.582-.022 6.873 0 .322.03.646.073.965.187 1.4 1.055 2.163 2.37 2.437.672.14 1.366.173 2.052.247.162.017.327.002.52.002v.986H98.57v-.936c.501-.063.99-.088 1.461-.192 1.72-.378 2.637-1.57 2.639-3.404.003-4.602.002-9.204-.001-13.807 0-.508-.002-1.019-.05-1.524-.141-1.512-.786-2.207-2.279-2.444-.574-.091-1.16-.117-1.766-.174v-.945c3.16-.065 6.308-.173 9.247-1.496l-.45 5.804.088.017.12-.313c.7-1.854 1.753-3.454 3.42-4.563 1.34-.891 2.84-1.182 4.414-.872zm-74.137-9.322c2.532.015 4.956.56 7.095 2 2.917 1.964 4.187 4.76 3.998 8.256-.092 1.7-.52 3.298-1.461 4.732-1.204 1.835-2.925 2.972-4.955 3.68-2.043.712-4.155.91-6.302.79-.805-.046-1.609-.118-2.43-.18v-1.057c.191 0 .374-.009.555.001 1.381.075 2.744-.038 4.068-.454 2.244-.705 3.776-2.178 4.532-4.415.72-2.131.84-4.324.325-6.511-.672-2.856-2.552-4.539-5.352-5.19-.8-.187-1.635-.265-2.458-.292-1.38-.047-2.765-.013-4.195-.013v.31c0 9.018-.002 18.035.005 27.052 0 .556.044 1.115.112 1.666.158 1.283.885 2.09 2.11 2.457.932.28 1.891.348 2.857.363.124.002.249 0 .403 0v.975H24v-.933c.631-.058 1.233-.088 1.827-.174.908-.13 1.765-.414 2.46-1.053.816-.752 1.066-1.745 1.138-2.806.01-.137.01-.274.01-.41 0-7.804.004-15.607-.007-23.41-.001-.523-.064-1.06-.189-1.567-.334-1.368-1.264-2.187-2.586-2.514-.758-.187-1.554-.222-2.333-.322-.094-.012-.19-.002-.302-.002v-.99h.311c5.65 0 11.298-.022 16.947.011zm87.688 11.081c-1.348.703-2.215 1.852-2.848 3.2-.74 1.575-1.089 3.254-1.25 4.977-.243 2.605-.195 5.198.369 7.763.345 1.571.902 3.054 1.917 4.328 2.124 2.666 5.875 2.874 8.271.453.92-.93 1.491-2.068 1.908-3.291.722-2.118.9-4.315.933-6.99-.039-.57-.09-1.596-.186-2.617-.056-.592-.162-1.182-.284-1.765-.33-1.572-.856-3.067-1.828-4.37-1.686-2.258-4.567-2.958-7.002-1.688z"/>
</svg>
