<svg xmlns="http://www.w3.org/2000/svg" width="184" height="100" viewBox="0 0 184 100">
    <path fill-rule="evenodd" d="M71.434 42.102c7.886 0 12.809 4.861 11.9 14.536h-18.4c.382 2.907 2.915 5.004 7.026 5.004 2.15 0 4.97-.81 6.309-2.192l3.727 3.67c-2.485 2.573-6.547 3.812-10.132 3.812-8.125 0-12.953-5.004-12.953-12.534 0-7.149 4.875-12.296 12.523-12.296zm27.867 0c7.886 0 12.81 4.861 11.9 14.536h-18.4c.382 2.907 2.915 5.004 7.026 5.004 2.15 0 4.97-.81 6.31-2.192l3.727 3.67c-2.486 2.573-6.548 3.812-10.133 3.812-8.125 0-12.953-5.004-12.953-12.534 0-7.149 4.876-12.296 12.523-12.296zM140.169 33v33.312h-5.449l-.382-3.24c-1.816 2.811-4.732 3.764-7.6 3.764-6.93 0-12.14-4.575-12.14-12.295 0-8.102 5.115-12.296 11.997-12.296 2.486 0 6.357 1.334 7.743 3.765V33h5.831zm11.808 30.31c0 4.528-6.883 4.528-6.883 0 0-4.527 6.883-4.527 6.883 0zM56.04 33v6.052H38.31v9.102h16.776v5.815H38.309v12.343H32V33h24.041zm71.08 14.679c-3.728 0-6.692 2.62-6.692 6.862 0 4.098 2.964 6.91 6.692 6.91 3.68 0 6.835-2.668 6.835-6.91 0-4.099-3.155-6.862-6.835-6.862zm-55.496-.43c-3.154 0-5.736 1.525-6.596 4.576h12.714c-.383-3.05-2.772-4.576-6.118-4.576zm27.867 0c-3.154 0-5.735 1.525-6.596 4.576h12.714c-.382-3.05-2.772-4.576-6.118-4.576z"/>
</svg>
